<?xml version="1.0" standalone="no"?>
<!DOCTYPE svg PUBLIC "-//W3C//DTD SVG 20010904//EN"
 "http://www.w3.org/TR/2001/REC-SVG-20010904/DTD/svg10.dtd">
<svg version="1.0" xmlns="http://www.w3.org/2000/svg"
 width="899.000000pt" height="1280.000000pt" viewBox="0 0 899.000000 1280.000000"
 preserveAspectRatio="xMidYMid meet">
<g transform="translate(0.000000,1280.000000) scale(0.100000,-0.100000)"
fill="#ffcc00" stroke="none">
<path d="M4725 11294 c-423 -828 -773 -1510 -776 -1516 -4 -6 -15 -5 -30 5
-13 9 -277 162 -587 341 -341 197 -565 320 -567 313 -4 -12 -31 -111 -355
-1322 -94 -352 -220 -822 -280 -1045 -60 -223 -186 -693 -280 -1045 -94 -352
-220 -822 -280 -1045 -60 -223 -195 -727 -300 -1120 -105 -393 -231 -863 -280
-1045 -49 -181 -175 -652 -280 -1045 -105 -393 -222 -830 -260 -970 -38 -140
-114 -426 -170 -635 -56 -209 -140 -521 -186 -694 -47 -173 -84 -321 -82 -328
2 -8 44 -32 94 -52 l91 -39 2058 3567 c1132 1961 2063 3572 2070 3579 9 10
122 -51 575 -312 310 -179 565 -325 566 -323 2 2 1998 3459 3232 5598 l292
505 0 67 0 67 -1747 0 -1748 0 -770 -1506z"/>
</g>
</svg>
